<svg width="104" height="107" viewBox="0 0 104 107" fill="none" xmlns="http://www.w3.org/2000/svg">
<path d="M64.3948 76.9645C59.1383 80.0608 53.0135 81.8387 46.4706 81.8387C26.9381 81.8387 11.1026 66.0032 11.1026 46.4707C11.1026 26.9381 26.9362 11.1026 46.4706 11.1026C66.0051 11.1026 81.8387 26.9381 81.8387 46.4707C81.8387 54.6653 79.0513 62.2063 74.3749 68.203C77.6501 69.3952 81.091 70.9942 84.6356 72.9849C89.8695 65.4665 92.9413 56.3283 92.9413 46.4707C92.9394 20.8058 72.1337 0 46.4706 0C20.8076 0 0 20.8058 0 46.4707C0 72.1355 20.8058 92.9413 46.4706 92.9413C47.3502 92.9413 48.2222 92.9149 49.0886 92.866C54.0061 92.8547 59.0969 92.5345 65.1689 92.8565C75.52 93.4027 81.5167 98.7534 88.3628 105.824L103.882 106.229C97.5198 99.051 81.8538 78.0531 64.3948 76.9645Z" fill="#1E1E1E"/>
</svg>
