<?xml version="1.0" encoding="UTF-8"?>
<svg id="Ebene_1" xmlns="http://www.w3.org/2000/svg" version="1.1" viewBox="0 0 302 107">
  <!-- Generator: Adobe Illustrator 29.8.4, SVG Export Plug-In . SVG Version: 2.1.1 Build 6)  -->
  <defs>
    <style>
      .st0, .st1 {
        fill: #1e1e1e;
      }

      .st2 {
        fill: #d7fe02;
      }

      .st1 {
        display: none;
      }
    </style>
  </defs>
  <path class="st1" d="M217.08,25.9c2.4,0,4.57.43,6.5,1.3.31.13.61.27.91.42-3.03,1.78-5.59,4.06-7.67,6.83-.4-.03-.81-.05-1.24-.05-3.33,0-6.07,1.07-8.2,3.2-2.13,2.13-3.2,5.37-3.2,9.7v27.1h-9V26.9h.9c.08.09.16.19.24.28.88.88,2.01,1.32,3.39,1.32,1.38,0,2.51-.44,3.39-1.32.09-.09.16-.18.24-.28h.84v5.52c.25-.39.52-.76.8-1.12,2.8-3.6,6.83-5.4,12.1-5.4Z"/>
  <path class="st1" d="M196.32,21.18c.88.88,2.01,1.32,3.39,1.32s2.51-.44,3.39-1.32c.88-.94,1.32-2.09,1.32-3.47s-.44-2.42-1.32-3.3c-.88-.94-2.01-1.4-3.39-1.4s-2.51.47-3.39,1.4c-.88.88-1.32,1.98-1.32,3.3s.44,2.53,1.32,3.47Z"/>
  <path class="st1" d="M164.08,25.9c3.67,0,6.9.77,9.7,2.3,2.54,1.3,4.6,3.07,6.2,5.3v-6.6h9v67.4h-9v-26.5c-1.6,2.24-3.66,4.05-6.2,5.4-2.8,1.47-6,2.2-9.6,2.2-4.4,0-8.37-1.07-11.9-3.2-3.53-2.2-6.33-5.17-8.4-8.9-2-3.73-3-7.93-3-12.6s1-8.87,3-12.6c2.07-3.73,4.87-6.7,8.4-8.9,3.53-2.2,7.47-3.3,11.8-3.3ZM123.7,25.9c3.73,0,7.03.67,9.9,2,2.93,1.27,5.33,3.2,7.2,5.8l-5.8,5.8c-1.33-1.73-3-3.07-5-4-1.93-.93-4.13-1.4-6.6-1.4-2.6,0-4.6.47-6,1.4-1.33.87-2,2.1-2,3.7s.6,2.83,1.8,3.7c1.2.87,2.77,1.6,4.7,2.2,2,.6,4.07,1.23,6.2,1.9,2.13.6,4.17,1.43,6.1,2.5s3.5,2.5,4.7,4.3c1.27,1.8,1.9,4.17,1.9,7.1,0,4.47-1.6,8-4.8,10.6-3.13,2.6-7.37,3.9-12.7,3.9-2.67,0-5.2-.33-7.6-1-2.33-.73-4.5-1.73-6.5-3-2-1.33-3.73-2.9-5.2-4.7l5.8-5.8c1.73,2.13,3.73,3.73,6,4.8,2.27,1,4.8,1.5,7.6,1.5s4.97-.47,6.5-1.4c1.53-1,2.3-2.37,2.3-4.1s-.63-3.07-1.9-4c-1.2-1-2.77-1.8-4.7-2.4-1.93-.67-4-1.3-6.2-1.9-2.13-.67-4.17-1.5-6.1-2.5-1.93-1-3.53-2.37-4.8-4.1-1.2-1.73-1.8-4.03-1.8-6.9s.7-5.33,2.1-7.4c1.4-2.13,3.33-3.77,5.8-4.9,2.53-1.13,5.57-1.7,9.1-1.7ZM238.45,25.9c3.67,0,7.07.7,10.2,2.1,3.13,1.33,5.83,3.3,8.1,5.9l-6,6c-1.47-1.73-3.27-3.03-5.4-3.9-2.07-.93-4.37-1.4-6.9-1.4-3,0-5.67.7-8,2.1-2.33,1.33-4.17,3.2-5.5,5.6-1.33,2.4-2,5.17-2,8.3s.67,5.9,2,8.3c1.33,2.4,3.17,4.3,5.5,5.7,2.33,1.4,5,2.1,8,2.1,2.53,0,4.83-.43,6.9-1.3,2.13-.93,3.97-2.27,5.5-4l5.9,6c-2.2,2.53-4.9,4.5-8.1,5.9-3.13,1.4-6.53,2.1-10.2,2.1-4.67,0-8.9-1.1-12.7-3.3-3.73-2.2-6.7-5.17-8.9-8.9-2.13-3.8-3.2-8-3.2-12.6s1.07-8.87,3.2-12.6c2.2-3.73,5.17-6.67,8.9-8.8,3.8-2.2,8.03-3.3,12.7-3.3ZM267.68,33.04c1.44-1.89,3.24-3.43,5.4-4.64,2.87-1.67,6.1-2.5,9.7-2.5s6.77.8,9.5,2.4c2.8,1.6,5,3.83,6.6,6.7,1.6,2.87,2.4,6.17,2.4,9.9v29.5h-9v-27.7c0-3.6-1.13-6.57-3.4-8.9-2.27-2.33-5.2-3.5-8.8-3.5-2.4,0-4.53.53-6.4,1.6-1.87,1.07-3.33,2.53-4.4,4.4-1.07,1.87-1.6,4-1.6,6.4v27.7h-9V13h9v20.04ZM165.58,34.4c-3,0-5.67.7-8,2.1-2.27,1.4-4.07,3.33-5.4,5.8-1.33,2.4-2,5.17-2,8.3s.67,6.03,2,8.5c1.33,2.4,3.13,4.3,5.4,5.7,2.33,1.4,5,2.1,8,2.1,4.47,0,8.07-1.5,10.8-4.5,2.73-3.07,4.1-6.97,4.1-11.7,0-3.27-.63-6.1-1.9-8.5-1.2-2.47-2.93-4.37-5.2-5.7-2.2-1.4-4.8-2.1-7.8-2.1Z"/>
  <path class="st1" d="M64.39,76.96c-5.26,3.1-11.38,4.87-17.92,4.87-19.53,0-35.37-15.84-35.37-35.37S26.94,11.1,46.47,11.1s35.37,15.84,35.37,35.37c0,8.19-2.79,15.74-7.46,21.73,3.28,1.19,6.72,2.79,10.26,4.78,5.23-7.52,8.31-16.66,8.31-26.51C92.94,20.81,72.13,0,46.47,0S0,20.81,0,46.47s20.81,46.47,46.47,46.47c.88,0,1.75-.03,2.62-.08,4.92-.01,10.01-.33,16.08,0,10.35.55,16.35,5.9,23.19,12.97l15.52.4c-6.36-7.18-22.03-28.18-39.49-29.26Z"/>
  <rect class="st0" x="1" y="1.39" width="100" height="100" rx="20" ry="20"/>
  <path class="st2" d="M73.76,84.31l-5.14-6.18c-2.55,1.71-5.35,3.03-8.4,3.96-3.06.93-6.25,1.39-9.58,1.39-4.49,0-8.73-.83-12.71-2.5-3.94-1.71-7.41-4.05-10.42-7.01-2.96-2.96-5.3-6.41-7.01-10.35-1.67-3.94-2.5-8.15-2.5-12.64s.83-8.7,2.5-12.64c1.71-3.94,4.05-7.38,7.01-10.35,3.01-2.96,6.48-5.28,10.42-6.94,3.98-1.71,8.22-2.57,12.71-2.57s8.77.86,12.71,2.57c3.94,1.67,7.38,3.98,10.35,6.94,3.01,2.96,5.35,6.41,7.01,10.35,1.71,3.94,2.57,8.15,2.57,12.64s-.83,8.61-2.5,12.5c-1.67,3.89-3.94,7.29-6.81,10.21l8.82,10.62h-9.03ZM50.64,75.97c4.72,0,9-1.23,12.85-3.68l-17.71-21.32h9.31l13.89,16.67c1.9-2.22,3.38-4.75,4.44-7.57,1.11-2.87,1.67-5.9,1.67-9.1,0-4.63-1.09-8.82-3.26-12.57-2.13-3.8-5.05-6.81-8.75-9.03-3.7-2.27-7.85-3.4-12.43-3.4s-8.73,1.13-12.43,3.4c-3.66,2.22-6.57,5.23-8.75,9.03-2.18,3.75-3.26,7.94-3.26,12.57s1.09,8.77,3.26,12.57c2.18,3.8,5.09,6.83,8.75,9.1,3.7,2.22,7.85,3.33,12.43,3.33Z"/>
  <path class="st2" d="M27.8,18.47l5.14,6.18c2.55-1.71,5.35-3.03,8.4-3.96,3.06-.93,6.25-1.39,9.58-1.39,4.49,0,8.73.83,12.71,2.5,3.94,1.71,7.41,4.05,10.42,7.01,2.96,2.96,5.3,6.41,7.01,10.35,1.67,3.94,2.5,8.15,2.5,12.64s-.83,8.7-2.5,12.64c-1.71,3.94-4.05,7.38-7.01,10.35-3.01,2.96-6.48,5.28-10.42,6.94-3.98,1.71-8.22,2.57-12.71,2.57s-8.77-.86-12.71-2.57c-3.94-1.67-7.38-3.98-10.35-6.94-3.01-2.96-5.35-6.41-7.01-10.35-1.71-3.94-2.57-8.15-2.57-12.64s.83-8.61,2.5-12.5c1.67-3.89,3.94-7.29,6.81-10.21l-8.82-10.62h9.03ZM50.92,26.81c-4.72,0-9,1.23-12.85,3.68l17.71,21.32h-9.31l-13.89-16.67c-1.9,2.22-3.38,4.75-4.44,7.57-1.11,2.87-1.67,5.9-1.67,9.1,0,4.63,1.09,8.82,3.26,12.57,2.13,3.8,5.05,6.81,8.75,9.03,3.7,2.27,7.85,3.4,12.43,3.4s8.73-1.13,12.43-3.4c3.66-2.22,6.57-5.23,8.75-9.03,2.18-3.75,3.26-7.94,3.26-12.57s-1.09-8.77-3.26-12.57c-2.18-3.8-5.09-6.83-8.75-9.1-3.7-2.22-7.85-3.33-12.43-3.33Z"/>
  <path d="M118.21,69.92c-2.28,0-4.35-.46-6.21-1.37-1.83-.91-3.28-2.03-4.37-3.34l1.41-5.91c.8,1.6,2,3.04,3.6,4.32,1.6,1.28,3.51,1.93,5.74,1.93,2.03,0,3.7-.64,5.01-1.93,1.34-1.28,2.01-2.87,2.01-4.75,0-1.37-.33-2.5-.98-3.38-.66-.88-1.4-1.58-2.23-2.1-.83-.51-1.48-.88-1.97-1.11l-4.71-2.4c-.74-.4-1.67-.96-2.78-1.67-1.08-.71-2.04-1.7-2.87-2.95-.83-1.26-1.24-2.88-1.24-4.88s.44-3.67,1.33-5.18c.91-1.51,2.17-2.7,3.77-3.55,1.63-.86,3.48-1.28,5.56-1.28s3.87.37,5.44,1.11c1.57.71,2.8,1.46,3.68,2.23l-1.41,5.91c-.71-1.2-1.77-2.33-3.17-3.38-1.4-1.06-2.98-1.58-4.75-1.58s-3.08.51-4.11,1.54c-1.03,1-1.54,2.24-1.54,3.72,0,1.14.26,2.08.77,2.82.54.74,1.14,1.33,1.8,1.75.68.43,1.24.76,1.67.98l4.79,2.4c.57.29,1.28.68,2.14,1.2.88.51,1.75,1.2,2.61,2.05.86.83,1.57,1.85,2.14,3.08.57,1.2.86,2.65.86,4.37,0,2.2-.53,4.15-1.58,5.86-1.03,1.71-2.44,3.05-4.24,4.02-1.8.97-3.85,1.46-6.16,1.46Z"/>
  <path d="M167.22,70.69l-3.17-3.81c-1.57,1.06-3.3,1.87-5.18,2.44-1.88.57-3.85.86-5.91.86-2.77,0-5.38-.51-7.83-1.54-2.43-1.06-4.57-2.5-6.42-4.32-1.83-1.83-3.27-3.95-4.32-6.38-1.03-2.43-1.54-5.02-1.54-7.79s.51-5.36,1.54-7.79c1.06-2.43,2.5-4.55,4.32-6.38,1.85-1.83,3.99-3.25,6.42-4.28,2.45-1.06,5.06-1.58,7.83-1.58s5.41.53,7.83,1.58c2.43,1.03,4.55,2.45,6.38,4.28,1.85,1.83,3.3,3.95,4.32,6.38,1.06,2.43,1.58,5.02,1.58,7.79s-.51,5.31-1.54,7.7c-1.03,2.4-2.43,4.49-4.19,6.29l5.44,6.55h-5.56ZM152.97,65.55c2.91,0,5.55-.76,7.92-2.27l-10.91-13.14h5.74l8.56,10.27c1.17-1.37,2.08-2.92,2.74-4.67.68-1.77,1.03-3.64,1.03-5.61,0-2.85-.67-5.44-2.01-7.75-1.31-2.34-3.11-4.19-5.39-5.56-2.28-1.4-4.84-2.1-7.66-2.1s-5.38.7-7.66,2.1c-2.25,1.37-4.05,3.22-5.39,5.56-1.34,2.31-2.01,4.89-2.01,7.75s.67,5.41,2.01,7.75c1.34,2.34,3.14,4.21,5.39,5.61,2.28,1.37,4.84,2.05,7.66,2.05Z"/>
  <path d="M196.5,70.17c-2.77,0-5.38-.51-7.83-1.54-2.43-1.06-4.57-2.5-6.42-4.32-1.83-1.83-3.27-3.95-4.32-6.38-1.03-2.43-1.54-5.02-1.54-7.79s.51-5.36,1.54-7.79c1.06-2.43,2.5-4.55,4.32-6.38,1.85-1.83,3.99-3.25,6.42-4.28,2.45-1.06,5.07-1.58,7.83-1.58s5.41.53,7.83,1.58c2.43,1.03,4.55,2.45,6.38,4.28,1.86,1.83,3.3,3.95,4.32,6.38,1.06,2.43,1.58,5.02,1.58,7.79s-.53,5.36-1.58,7.79c-1.03,2.43-2.47,4.55-4.32,6.38-1.83,1.83-3.95,3.27-6.38,4.32-2.43,1.03-5.04,1.54-7.83,1.54ZM196.5,65.55c2.82,0,5.38-.68,7.66-2.05,2.28-1.4,4.08-3.27,5.39-5.61,1.34-2.34,2.01-4.92,2.01-7.75s-.67-5.44-2.01-7.75c-1.31-2.34-3.11-4.19-5.39-5.56-2.28-1.4-4.84-2.1-7.66-2.1s-5.38.7-7.66,2.1c-2.25,1.37-4.05,3.22-5.39,5.56-1.34,2.31-2.01,4.89-2.01,7.75s.67,5.41,2.01,7.75c1.34,2.34,3.14,4.21,5.39,5.61,2.28,1.37,4.84,2.05,7.66,2.05Z"/>
  <path d="M220.28,69.4V30.88h9.54c2.54,0,4.68.39,6.42,1.16,1.77.77,3.2,1.78,4.28,3.04,1.08,1.23,1.87,2.57,2.35,4.02.51,1.46.77,2.88.77,4.28s-.24,2.78-.73,4.24c-.49,1.46-1.27,2.81-2.35,4.07-1.08,1.26-2.51,2.27-4.28,3.04-1.77.77-3.92,1.16-6.46,1.16h-4.67v13.53h-4.88ZM225.16,51.51h4.41c2.31,0,4.14-.4,5.48-1.2,1.34-.83,2.3-1.85,2.87-3.08.57-1.26.86-2.54.86-3.85s-.29-2.51-.86-3.77c-.54-1.26-1.48-2.3-2.82-3.12-1.31-.83-3.15-1.24-5.52-1.24h-4.41v16.26Z"/>
  <path d="M258.51,69.92c-2.43,0-4.58-.53-6.46-1.58-1.88-1.08-3.37-2.57-4.45-4.45-1.06-1.91-1.58-4.11-1.58-6.59v-26.41h4.88v26.24c0,2.54.73,4.58,2.18,6.12,1.46,1.54,3.3,2.31,5.52,2.31s4.02-.76,5.48-2.27c1.48-1.54,2.23-3.54,2.23-5.99v-26.41h4.71v26.24c0,2.51-.54,4.74-1.63,6.68-1.06,1.91-2.53,3.41-4.41,4.49-1.85,1.08-4.01,1.63-6.46,1.63Z"/>
  <path d="M285.02,69.92c-2.28,0-4.35-.46-6.21-1.37-1.83-.91-3.28-2.03-4.37-3.34l1.41-5.91c.8,1.6,2,3.04,3.6,4.32,1.6,1.28,3.51,1.93,5.74,1.93,2.03,0,3.7-.64,5.01-1.93,1.34-1.28,2.01-2.87,2.01-4.75,0-1.37-.33-2.5-.98-3.38-.66-.88-1.4-1.58-2.23-2.1-.83-.51-1.48-.88-1.97-1.11l-4.71-2.4c-.74-.4-1.67-.96-2.78-1.67-1.08-.71-2.04-1.7-2.87-2.95-.83-1.26-1.24-2.88-1.24-4.88s.44-3.67,1.33-5.18c.91-1.51,2.17-2.7,3.77-3.55,1.63-.86,3.48-1.28,5.56-1.28s3.87.37,5.44,1.11c1.57.71,2.8,1.46,3.68,2.23l-1.41,5.91c-.71-1.2-1.77-2.33-3.17-3.38-1.4-1.06-2.98-1.58-4.75-1.58s-3.08.51-4.11,1.54c-1.03,1-1.54,2.24-1.54,3.72,0,1.14.26,2.08.77,2.82.54.74,1.14,1.33,1.8,1.75.69.43,1.24.76,1.67.98l4.79,2.4c.57.29,1.28.68,2.14,1.2.88.51,1.75,1.2,2.61,2.05.86.83,1.57,1.85,2.14,3.08.57,1.2.86,2.65.86,4.37,0,2.2-.53,4.15-1.58,5.86-1.03,1.71-2.44,3.05-4.24,4.02-1.8.97-3.85,1.46-6.16,1.46Z"/>
  <path d="M138.89,30.11l3.17,3.81c1.57-1.06,3.3-1.87,5.18-2.44,1.88-.57,3.85-.86,5.91-.86,2.77,0,5.38.51,7.83,1.54,2.43,1.06,4.57,2.5,6.42,4.32,1.83,1.83,3.27,3.95,4.32,6.38,1.03,2.43,1.54,5.02,1.54,7.79s-.51,5.36-1.54,7.79c-1.06,2.43-2.5,4.55-4.32,6.38-1.85,1.83-3.99,3.25-6.42,4.28-2.45,1.06-5.06,1.58-7.83,1.58s-5.41-.53-7.83-1.58c-2.43-1.03-4.55-2.45-6.38-4.28-1.85-1.83-3.3-3.95-4.32-6.38-1.06-2.43-1.58-5.02-1.58-7.79s.51-5.31,1.54-7.7c1.03-2.4,2.43-4.49,4.19-6.29l-5.44-6.55h5.56ZM153.14,35.25c-2.91,0-5.55.76-7.92,2.27l10.91,13.14h-5.74l-8.56-10.27c-1.17,1.37-2.08,2.92-2.74,4.67-.68,1.77-1.03,3.64-1.03,5.61,0,2.85.67,5.44,2.01,7.75,1.31,2.34,3.11,4.19,5.39,5.56,2.28,1.4,4.84,2.1,7.66,2.1s5.38-.7,7.66-2.1c2.25-1.37,4.05-3.22,5.39-5.56,1.34-2.31,2.01-4.89,2.01-7.75s-.67-5.41-2.01-7.75c-1.34-2.34-3.14-4.21-5.39-5.61-2.28-1.37-4.84-2.05-7.66-2.05Z"/>
</svg>