<?xml version="1.0" encoding="UTF-8"?>
<svg id="Ebene_1" xmlns="http://www.w3.org/2000/svg" version="1.1" viewBox="0 0 104 107">
  <!-- Generator: Adobe Illustrator 29.8.4, SVG Export Plug-In . SVG Version: 2.1.1 Build 6)  -->
  <defs>
    <style>
      .st0, .st1 {
        fill: #1e1e1e;
      }

      .st2 {
        fill: #d7fe02;
      }

      .st1 {
        display: none;
      }
    </style>
  </defs>
  <path class="st1" d="M64.39,76.96c-5.26,3.1-11.38,4.87-17.92,4.87-19.53,0-35.37-15.84-35.37-35.37S26.94,11.1,46.47,11.1s35.37,15.84,35.37,35.37c0,8.19-2.79,15.74-7.46,21.73,3.28,1.19,6.72,2.79,10.26,4.78,5.23-7.52,8.31-16.66,8.31-26.51C92.94,20.81,72.13,0,46.47,0S0,20.81,0,46.47s20.81,46.47,46.47,46.47c.88,0,1.75-.03,2.62-.08,4.92-.01,10.01-.33,16.08,0,10.35.55,16.35,5.9,23.19,12.97l15.52.4c-6.36-7.18-22.03-28.18-39.49-29.26Z"/>
  <rect class="st0" x="2" y="4.39" width="100" height="100" rx="20" ry="20"/>
  <path class="st2" d="M74.76,87.31l-5.14-6.18c-2.55,1.71-5.35,3.03-8.4,3.96-3.06.93-6.25,1.39-9.58,1.39-4.49,0-8.73-.83-12.71-2.5-3.94-1.71-7.41-4.05-10.42-7.01-2.96-2.96-5.3-6.41-7.01-10.35-1.67-3.94-2.5-8.15-2.5-12.64s.83-8.7,2.5-12.64c1.71-3.94,4.05-7.38,7.01-10.35,3.01-2.96,6.48-5.28,10.42-6.94,3.98-1.71,8.22-2.57,12.71-2.57s8.77.86,12.71,2.57c3.94,1.67,7.38,3.98,10.35,6.94,3.01,2.96,5.35,6.41,7.01,10.35,1.71,3.94,2.57,8.15,2.57,12.64s-.83,8.61-2.5,12.5c-1.67,3.89-3.94,7.29-6.81,10.21l8.82,10.62h-9.03ZM51.64,78.97c4.72,0,9-1.23,12.85-3.68l-17.71-21.32h9.31l13.89,16.67c1.9-2.22,3.38-4.75,4.44-7.57,1.11-2.87,1.67-5.9,1.67-9.1,0-4.63-1.09-8.82-3.26-12.57-2.13-3.8-5.05-6.81-8.75-9.03-3.7-2.27-7.85-3.4-12.43-3.4s-8.73,1.13-12.43,3.4c-3.66,2.22-6.57,5.23-8.75,9.03-2.18,3.75-3.26,7.94-3.26,12.57s1.09,8.77,3.26,12.57c2.18,3.8,5.09,6.83,8.75,9.1,3.7,2.22,7.85,3.33,12.43,3.33Z"/>
  <path class="st2" d="M28.8,21.47l5.14,6.18c2.55-1.71,5.35-3.03,8.4-3.96,3.06-.93,6.25-1.39,9.58-1.39,4.49,0,8.73.83,12.71,2.5,3.94,1.71,7.41,4.05,10.42,7.01,2.96,2.96,5.3,6.41,7.01,10.35,1.67,3.94,2.5,8.15,2.5,12.64s-.83,8.7-2.5,12.64c-1.71,3.94-4.05,7.38-7.01,10.35-3.01,2.96-6.48,5.28-10.42,6.94-3.98,1.71-8.22,2.57-12.71,2.57s-8.77-.86-12.71-2.57c-3.94-1.67-7.38-3.98-10.35-6.94-3.01-2.96-5.35-6.41-7.01-10.35-1.71-3.94-2.57-8.15-2.57-12.64s.83-8.61,2.5-12.5c1.67-3.89,3.94-7.29,6.81-10.21l-8.82-10.62h9.03ZM51.92,29.81c-4.72,0-9,1.23-12.85,3.68l17.71,21.32h-9.31l-13.89-16.67c-1.9,2.22-3.38,4.75-4.44,7.57-1.11,2.87-1.67,5.9-1.67,9.1,0,4.63,1.09,8.82,3.26,12.57,2.13,3.8,5.05,6.81,8.75,9.03,3.7,2.27,7.85,3.4,12.43,3.4s8.73-1.13,12.43-3.4c3.66-2.22,6.57-5.23,8.75-9.03,2.18-3.75,3.26-7.94,3.26-12.57s-1.09-8.77-3.26-12.57c-2.18-3.8-5.09-6.83-8.75-9.1-3.7-2.22-7.85-3.33-12.43-3.33Z"/>
</svg>