<svg width="302" height="107" viewBox="0 0 302 107" fill="none" xmlns="http://www.w3.org/2000/svg">
<path d="M217.076 25.9004C219.476 25.9004 221.643 26.3336 223.576 27.2002C223.883 27.327 224.185 27.4696 224.485 27.625C221.456 29.4027 218.897 31.6818 216.818 34.4512C216.419 34.4177 216.004 34.4004 215.576 34.4004C212.243 34.4005 209.51 35.4666 207.377 37.5996C205.244 39.7329 204.177 42.9666 204.177 47.2998V74.4004H195.177V26.9004H196.08C196.157 26.9948 196.236 27.0884 196.321 27.1787C197.202 28.0599 198.332 28.5 199.709 28.5C201.086 28.4999 202.215 28.0597 203.096 27.1787C203.181 27.0885 203.26 26.9947 203.337 26.9004H204.177V32.4199C204.429 32.0342 204.696 31.6607 204.977 31.2998C207.776 27.7 211.81 25.9005 217.076 25.9004Z" fill="#1E1E1E"/>
<path d="M196.322 21.1783C197.203 22.0594 198.332 22.5 199.709 22.5C201.086 22.5 202.214 22.0594 203.096 21.1783C203.977 20.242 204.417 19.0855 204.417 17.7087C204.417 16.387 203.977 15.2855 203.096 14.4043C202.214 13.4681 201.086 13 199.709 13C198.332 13 197.203 13.4681 196.322 14.4043C195.441 15.2855 195 16.387 195 17.7087C195 19.0855 195.441 20.242 196.322 21.1783Z" fill="#1E1E1E"/>
<path d="M164.076 25.9004C167.743 25.9004 170.976 26.667 173.775 28.2002C176.312 29.498 178.379 31.2656 179.976 33.5029V26.9004H188.976V94.2998H179.976V67.7969C178.378 70.0414 176.312 71.8432 173.775 73.2002C170.975 74.6667 167.776 75.4004 164.176 75.4004C159.776 75.4004 155.809 74.3335 152.275 72.2002C148.742 70.0002 145.943 67.0331 143.876 63.2998C141.876 59.5665 140.876 55.3668 140.876 50.7002C140.876 46.0335 141.876 41.8329 143.876 38.0996C145.943 34.3666 148.742 31.4001 152.275 29.2002C155.809 27.0002 159.743 25.9004 164.076 25.9004ZM123.7 25.9004C127.433 25.9004 130.733 26.5671 133.6 27.9004C136.533 29.1671 138.933 31.1002 140.8 33.7002L135 39.5C133.667 37.7667 132 36.4333 130 35.5C128.067 34.5667 125.867 34.0997 123.4 34.0996C120.801 34.0996 118.8 34.5668 117.4 35.5C116.067 36.3667 115.4 37.6002 115.4 39.2002C115.4 40.8001 116 42.0338 117.2 42.9004C118.4 43.767 119.967 44.4997 121.9 45.0996C123.9 45.6996 125.966 46.3334 128.1 47C130.233 47.6 132.267 48.4333 134.2 49.5C136.133 50.5667 137.7 51.9999 138.9 53.7998C140.167 55.5998 140.8 57.9671 140.8 60.9004C140.8 65.3669 139.2 68.9001 136 71.5C132.867 74.1 128.633 75.4004 123.3 75.4004C120.633 75.4004 118.1 75.067 115.7 74.4004C113.367 73.6671 111.2 72.667 109.2 71.4004C107.2 70.0671 105.467 68.5001 104 66.7002L109.8 60.9004C111.533 63.0336 113.533 64.6336 115.8 65.7002C118.066 66.7002 120.6 67.2002 123.4 67.2002C126.2 67.2002 128.367 66.7331 129.9 65.7998C131.433 64.7999 132.2 63.4333 132.2 61.7002C132.2 59.9669 131.566 58.6335 130.3 57.7002C129.1 56.7002 127.533 55.8998 125.6 55.2998C123.667 54.6332 121.6 54.0003 119.4 53.4004C117.267 52.7337 115.233 51.9004 113.3 50.9004C111.366 49.9004 109.767 48.5331 108.5 46.7998C107.3 45.0666 106.7 42.7668 106.7 39.9004C106.7 37.0338 107.4 34.5666 108.8 32.5C110.2 30.3667 112.133 28.7329 114.6 27.5996C117.133 26.4663 120.167 25.9004 123.7 25.9004ZM238.451 25.9004C242.118 25.9004 245.517 26.6001 248.65 28C251.784 29.3333 254.484 31.3004 256.751 33.9004L250.751 39.9004C249.284 38.1671 247.484 36.8667 245.351 36C243.284 35.0668 240.984 34.5997 238.451 34.5996C235.451 34.5996 232.784 35.3003 230.451 36.7002C228.118 38.0335 226.284 39.9 224.951 42.2998C223.618 44.6997 222.951 47.4664 222.951 50.5996C222.951 53.7329 223.618 56.5004 224.951 58.9004C226.284 61.3002 228.118 63.1997 230.451 64.5996C232.784 65.9996 235.451 66.7002 238.451 66.7002C240.984 66.7002 243.284 66.2669 245.351 65.4004C247.484 64.4671 249.317 63.1336 250.851 61.4004L256.751 67.4004C254.551 69.9337 251.85 71.8998 248.65 73.2998C245.517 74.6997 242.118 75.4003 238.451 75.4004C233.785 75.4004 229.551 74.2996 225.751 72.0996C222.018 69.8996 219.051 66.9335 216.851 63.2002C214.717 59.4002 213.65 55.1996 213.65 50.5996C213.65 45.9331 214.717 41.7332 216.851 38C219.051 34.2667 222.018 31.3335 225.751 29.2002C229.551 27.0002 233.785 25.9004 238.451 25.9004ZM267.677 33.0371C269.117 31.1511 270.917 29.6056 273.076 28.4004C275.943 26.7338 279.176 25.9004 282.776 25.9004C286.376 25.9004 289.543 26.6999 292.276 28.2998C295.076 29.8998 297.277 32.1333 298.877 35C300.477 37.8666 301.276 41.1671 301.276 44.9004V74.4004H292.276V46.7002C292.276 43.1002 291.144 40.1331 288.877 37.7998C286.61 35.4665 283.676 34.2998 280.076 34.2998C277.676 34.2999 275.543 34.8338 273.677 35.9004C271.81 36.967 270.343 38.4332 269.276 40.2998C268.21 42.1665 267.677 44.3002 267.677 46.7002V74.4004H258.677V13H267.677V33.0371ZM165.576 34.4004C162.576 34.4004 159.909 35.1001 157.576 36.5C155.31 37.9 153.509 39.8332 152.176 42.2998C150.843 44.6997 150.176 47.4664 150.176 50.5996C150.176 53.7995 150.843 56.633 152.176 59.0996C153.509 61.4996 155.31 63.3998 157.576 64.7998C159.909 66.1997 162.576 66.9004 165.576 66.9004C170.043 66.9003 173.643 65.4002 176.376 62.4004C179.109 59.3338 180.476 55.4334 180.476 50.7002C180.476 47.4337 179.843 44.6001 178.576 42.2002C177.376 39.7336 175.643 37.8333 173.376 36.5C171.176 35.1001 168.576 34.4005 165.576 34.4004Z" fill="#1E1E1E"/>
<path d="M64.3948 76.9645C59.1383 80.0608 53.0135 81.8387 46.4706 81.8387C26.9381 81.8387 11.1026 66.0032 11.1026 46.4707C11.1026 26.9381 26.9362 11.1026 46.4706 11.1026C66.0051 11.1026 81.8387 26.9381 81.8387 46.4707C81.8387 54.6653 79.0513 62.2063 74.3749 68.203C77.6501 69.3952 81.091 70.9942 84.6356 72.9849C89.8695 65.4665 92.9413 56.3283 92.9413 46.4707C92.9394 20.8058 72.1337 0 46.4706 0C20.8076 0 0 20.8058 0 46.4707C0 72.1355 20.8058 92.9413 46.4706 92.9413C47.3502 92.9413 48.2222 92.9149 49.0886 92.866C54.0061 92.8547 59.0969 92.5345 65.1689 92.8565C75.52 93.4027 81.5167 98.7534 88.3628 105.824L103.882 106.229C97.5198 99.051 81.8538 78.0531 64.3948 76.9645Z" fill="#1E1E1E"/>
</svg>
